<mxfile host="app.diagrams.net" modified="2020-12-14T16:50:57.806Z" agent="5.0 (Windows NT 10.0; Win64; x64) AppleWebKit/537.36 (KHTML, like Gecko) Chrome/86.0.4240.185 YaBrowser/20.11.2.78 Yowser/2.5 Safari/537.36" etag="uvKtUcXgrs73pTcojhWC" version="14.0.1" type="github" pages="3">
  <diagram id="C5RBs43oDa-KdzZeNtuy" name="Page-1">
    <mxGraphModel dx="2500" dy="928" grid="1" gridSize="10" guides="1" tooltips="1" connect="1" arrows="1" fold="1" page="1" pageScale="1" pageWidth="827" pageHeight="1169" background="none" math="0" shadow="0">
      <root>
        <mxCell id="WIyWlLk6GJQsqaUBKTNV-0" />
        <mxCell id="WIyWlLk6GJQsqaUBKTNV-1" parent="WIyWlLk6GJQsqaUBKTNV-0" />
        <mxCell id="qf4U3e7nOnJENOwfYTnV-23" style="edgeStyle=orthogonalEdgeStyle;rounded=0;orthogonalLoop=1;jettySize=auto;html=1;exitX=0.5;exitY=1;exitDx=0;exitDy=0;entryX=0.5;entryY=0;entryDx=0;entryDy=0;" edge="1" parent="WIyWlLk6GJQsqaUBKTNV-1" source="qf4U3e7nOnJENOwfYTnV-0" target="qf4U3e7nOnJENOwfYTnV-3">
          <mxGeometry relative="1" as="geometry" />
        </mxCell>
        <mxCell id="qf4U3e7nOnJENOwfYTnV-0" value="public void run()" style="ellipse;whiteSpace=wrap;html=1;" vertex="1" parent="WIyWlLk6GJQsqaUBKTNV-1">
          <mxGeometry x="354" y="10" width="120" height="40" as="geometry" />
        </mxCell>
        <mxCell id="qf4U3e7nOnJENOwfYTnV-2" value="" style="endArrow=classic;html=1;exitX=0.5;exitY=1;exitDx=0;exitDy=0;" edge="1" parent="WIyWlLk6GJQsqaUBKTNV-1" source="qf4U3e7nOnJENOwfYTnV-0">
          <mxGeometry width="50" height="50" relative="1" as="geometry">
            <mxPoint x="390" y="130" as="sourcePoint" />
            <mxPoint x="414" y="80" as="targetPoint" />
          </mxGeometry>
        </mxCell>
        <mxCell id="qf4U3e7nOnJENOwfYTnV-14" style="edgeStyle=orthogonalEdgeStyle;rounded=0;orthogonalLoop=1;jettySize=auto;html=1;exitX=0.5;exitY=1;exitDx=0;exitDy=0;entryX=0.5;entryY=0;entryDx=0;entryDy=0;" edge="1" parent="WIyWlLk6GJQsqaUBKTNV-1" source="qf4U3e7nOnJENOwfYTnV-3" target="qf4U3e7nOnJENOwfYTnV-4">
          <mxGeometry relative="1" as="geometry" />
        </mxCell>
        <mxCell id="qf4U3e7nOnJENOwfYTnV-3" value="FPS = 30;" style="rounded=0;whiteSpace=wrap;html=1;" vertex="1" parent="WIyWlLk6GJQsqaUBKTNV-1">
          <mxGeometry x="354" y="70" width="120" height="20" as="geometry" />
        </mxCell>
        <mxCell id="qf4U3e7nOnJENOwfYTnV-15" style="edgeStyle=orthogonalEdgeStyle;rounded=0;orthogonalLoop=1;jettySize=auto;html=1;exitX=0.5;exitY=1;exitDx=0;exitDy=0;entryX=0.5;entryY=0;entryDx=0;entryDy=0;" edge="1" parent="WIyWlLk6GJQsqaUBKTNV-1" source="qf4U3e7nOnJENOwfYTnV-4" target="qf4U3e7nOnJENOwfYTnV-6">
          <mxGeometry relative="1" as="geometry" />
        </mxCell>
        <mxCell id="qf4U3e7nOnJENOwfYTnV-4" value="&lt;span&gt;	&lt;/span&gt;msecFPS = 1000 / FPS" style="rounded=0;whiteSpace=wrap;html=1;" vertex="1" parent="WIyWlLk6GJQsqaUBKTNV-1">
          <mxGeometry x="354" y="100" width="120" height="30" as="geometry" />
        </mxCell>
        <mxCell id="qf4U3e7nOnJENOwfYTnV-25" style="edgeStyle=orthogonalEdgeStyle;rounded=0;orthogonalLoop=1;jettySize=auto;html=1;exitX=0.5;exitY=1;exitDx=0;exitDy=0;entryX=0.5;entryY=0;entryDx=0;entryDy=0;" edge="1" parent="WIyWlLk6GJQsqaUBKTNV-1" source="qf4U3e7nOnJENOwfYTnV-5" target="qf4U3e7nOnJENOwfYTnV-24">
          <mxGeometry relative="1" as="geometry">
            <Array as="points">
              <mxPoint x="420" y="370" />
              <mxPoint x="420" y="400" />
            </Array>
          </mxGeometry>
        </mxCell>
        <mxCell id="qf4U3e7nOnJENOwfYTnV-5" value="cont = new Cont();" style="rounded=0;whiteSpace=wrap;html=1;" vertex="1" parent="WIyWlLk6GJQsqaUBKTNV-1">
          <mxGeometry x="354" y="350" width="120" height="20" as="geometry" />
        </mxCell>
        <mxCell id="qf4U3e7nOnJENOwfYTnV-16" style="edgeStyle=orthogonalEdgeStyle;rounded=0;orthogonalLoop=1;jettySize=auto;html=1;exitX=0.5;exitY=1;exitDx=0;exitDy=0;entryX=0.5;entryY=0;entryDx=0;entryDy=0;" edge="1" parent="WIyWlLk6GJQsqaUBKTNV-1" source="qf4U3e7nOnJENOwfYTnV-6" target="qf4U3e7nOnJENOwfYTnV-7">
          <mxGeometry relative="1" as="geometry" />
        </mxCell>
        <mxCell id="qf4U3e7nOnJENOwfYTnV-6" value="sleeptime = 0;" style="rounded=0;whiteSpace=wrap;html=1;" vertex="1" parent="WIyWlLk6GJQsqaUBKTNV-1">
          <mxGeometry x="354" y="140" width="120" height="20" as="geometry" />
        </mxCell>
        <mxCell id="qf4U3e7nOnJENOwfYTnV-17" style="edgeStyle=orthogonalEdgeStyle;rounded=0;orthogonalLoop=1;jettySize=auto;html=1;exitX=0.5;exitY=1;exitDx=0;exitDy=0;entryX=0.5;entryY=0;entryDx=0;entryDy=0;" edge="1" parent="WIyWlLk6GJQsqaUBKTNV-1" source="qf4U3e7nOnJENOwfYTnV-7" target="qf4U3e7nOnJENOwfYTnV-10">
          <mxGeometry relative="1" as="geometry" />
        </mxCell>
        <mxCell id="qf4U3e7nOnJENOwfYTnV-7" value="clic = false;" style="rounded=0;whiteSpace=wrap;html=1;" vertex="1" parent="WIyWlLk6GJQsqaUBKTNV-1">
          <mxGeometry x="354" y="170" width="120" height="20" as="geometry" />
        </mxCell>
        <mxCell id="qf4U3e7nOnJENOwfYTnV-19" style="edgeStyle=orthogonalEdgeStyle;rounded=0;orthogonalLoop=1;jettySize=auto;html=1;exitX=0.5;exitY=1;exitDx=0;exitDy=0;entryX=0.5;entryY=0;entryDx=0;entryDy=0;" edge="1" parent="WIyWlLk6GJQsqaUBKTNV-1" source="qf4U3e7nOnJENOwfYTnV-8" target="qf4U3e7nOnJENOwfYTnV-9">
          <mxGeometry relative="1" as="geometry" />
        </mxCell>
        <mxCell id="qf4U3e7nOnJENOwfYTnV-8" value="sword = false;" style="rounded=0;whiteSpace=wrap;html=1;" vertex="1" parent="WIyWlLk6GJQsqaUBKTNV-1">
          <mxGeometry x="354" y="230" width="120" height="20" as="geometry" />
        </mxCell>
        <mxCell id="qf4U3e7nOnJENOwfYTnV-20" style="edgeStyle=orthogonalEdgeStyle;rounded=0;orthogonalLoop=1;jettySize=auto;html=1;exitX=0.5;exitY=1;exitDx=0;exitDy=0;entryX=0.5;entryY=0;entryDx=0;entryDy=0;" edge="1" parent="WIyWlLk6GJQsqaUBKTNV-1" source="qf4U3e7nOnJENOwfYTnV-9" target="qf4U3e7nOnJENOwfYTnV-11">
          <mxGeometry relative="1" as="geometry" />
        </mxCell>
        <mxCell id="qf4U3e7nOnJENOwfYTnV-9" value="&lt;span&gt;	&lt;/span&gt;image = new BufferedImage(WIDTH,HEIGHT,BufferedImage.TYPE_INT_RGB);" style="rounded=0;whiteSpace=wrap;html=1;" vertex="1" parent="WIyWlLk6GJQsqaUBKTNV-1">
          <mxGeometry x="195.5" y="260" width="437" height="20" as="geometry" />
        </mxCell>
        <mxCell id="qf4U3e7nOnJENOwfYTnV-18" style="edgeStyle=orthogonalEdgeStyle;rounded=0;orthogonalLoop=1;jettySize=auto;html=1;exitX=0.5;exitY=1;exitDx=0;exitDy=0;entryX=0.5;entryY=0;entryDx=0;entryDy=0;" edge="1" parent="WIyWlLk6GJQsqaUBKTNV-1" source="qf4U3e7nOnJENOwfYTnV-10" target="qf4U3e7nOnJENOwfYTnV-8">
          <mxGeometry relative="1" as="geometry" />
        </mxCell>
        <mxCell id="qf4U3e7nOnJENOwfYTnV-10" value="TAB = false;" style="rounded=0;whiteSpace=wrap;html=1;" vertex="1" parent="WIyWlLk6GJQsqaUBKTNV-1">
          <mxGeometry x="354" y="200" width="120" height="20" as="geometry" />
        </mxCell>
        <mxCell id="qf4U3e7nOnJENOwfYTnV-21" style="edgeStyle=orthogonalEdgeStyle;rounded=0;orthogonalLoop=1;jettySize=auto;html=1;exitX=0.5;exitY=1;exitDx=0;exitDy=0;entryX=0.5;entryY=0;entryDx=0;entryDy=0;" edge="1" parent="WIyWlLk6GJQsqaUBKTNV-1" source="qf4U3e7nOnJENOwfYTnV-11" target="qf4U3e7nOnJENOwfYTnV-12">
          <mxGeometry relative="1" as="geometry" />
        </mxCell>
        <mxCell id="qf4U3e7nOnJENOwfYTnV-11" value="g = (Graphics2D) image.getGraphics();" style="rounded=0;whiteSpace=wrap;html=1;" vertex="1" parent="WIyWlLk6GJQsqaUBKTNV-1">
          <mxGeometry x="301" y="290" width="226" height="20" as="geometry" />
        </mxCell>
        <mxCell id="qf4U3e7nOnJENOwfYTnV-22" style="edgeStyle=orthogonalEdgeStyle;rounded=0;orthogonalLoop=1;jettySize=auto;html=1;exitX=0.5;exitY=1;exitDx=0;exitDy=0;entryX=0.5;entryY=0;entryDx=0;entryDy=0;" edge="1" parent="WIyWlLk6GJQsqaUBKTNV-1" source="qf4U3e7nOnJENOwfYTnV-12" target="qf4U3e7nOnJENOwfYTnV-5">
          <mxGeometry relative="1" as="geometry" />
        </mxCell>
        <mxCell id="qf4U3e7nOnJENOwfYTnV-12" value="&lt;span&gt;	&lt;/span&gt;g.setRenderingHint(RenderingHints.KEY_ANTIALIASING, RenderingHints.VALUE_ANTIALIAS_ON)" style="rounded=0;whiteSpace=wrap;html=1;" vertex="1" parent="WIyWlLk6GJQsqaUBKTNV-1">
          <mxGeometry x="144" y="320" width="540" height="20" as="geometry" />
        </mxCell>
        <mxCell id="qf4U3e7nOnJENOwfYTnV-28" style="edgeStyle=orthogonalEdgeStyle;rounded=0;orthogonalLoop=1;jettySize=auto;html=1;exitX=0;exitY=0.5;exitDx=0;exitDy=0;" edge="1" parent="WIyWlLk6GJQsqaUBKTNV-1" source="qf4U3e7nOnJENOwfYTnV-24">
          <mxGeometry relative="1" as="geometry">
            <mxPoint x="330" y="435" as="targetPoint" />
          </mxGeometry>
        </mxCell>
        <mxCell id="qf4U3e7nOnJENOwfYTnV-24" value="true" style="rhombus;whiteSpace=wrap;html=1;" vertex="1" parent="WIyWlLk6GJQsqaUBKTNV-1">
          <mxGeometry x="370.5" y="410" width="87" height="55" as="geometry" />
        </mxCell>
        <mxCell id="qf4U3e7nOnJENOwfYTnV-29" value="TRUE" style="text;html=1;strokeColor=none;fillColor=none;align=center;verticalAlign=middle;whiteSpace=wrap;rounded=0;" vertex="1" parent="WIyWlLk6GJQsqaUBKTNV-1">
          <mxGeometry x="340" y="410" width="30" height="20" as="geometry" />
        </mxCell>
        <mxCell id="qf4U3e7nOnJENOwfYTnV-32" style="edgeStyle=orthogonalEdgeStyle;rounded=0;orthogonalLoop=1;jettySize=auto;html=1;exitX=0.5;exitY=1;exitDx=0;exitDy=0;" edge="1" parent="WIyWlLk6GJQsqaUBKTNV-1" source="qf4U3e7nOnJENOwfYTnV-30">
          <mxGeometry relative="1" as="geometry">
            <mxPoint x="270" y="470" as="targetPoint" />
          </mxGeometry>
        </mxCell>
        <mxCell id="qf4U3e7nOnJENOwfYTnV-30" value="FPStimer = System.nanoTime()" style="rounded=0;whiteSpace=wrap;html=1;" vertex="1" parent="WIyWlLk6GJQsqaUBKTNV-1">
          <mxGeometry x="210" y="420" width="120" height="30" as="geometry" />
        </mxCell>
        <mxCell id="qf4U3e7nOnJENOwfYTnV-36" style="edgeStyle=orthogonalEdgeStyle;rounded=0;orthogonalLoop=1;jettySize=auto;html=1;exitX=0;exitY=0.5;exitDx=0;exitDy=0;" edge="1" parent="WIyWlLk6GJQsqaUBKTNV-1" source="qf4U3e7nOnJENOwfYTnV-31">
          <mxGeometry relative="1" as="geometry">
            <mxPoint x="140" y="500" as="targetPoint" />
          </mxGeometry>
        </mxCell>
        <mxCell id="qf4U3e7nOnJENOwfYTnV-50" style="edgeStyle=orthogonalEdgeStyle;rounded=0;orthogonalLoop=1;jettySize=auto;html=1;exitX=0.5;exitY=1;exitDx=0;exitDy=0;entryX=1;entryY=0.5;entryDx=0;entryDy=0;" edge="1" parent="WIyWlLk6GJQsqaUBKTNV-1" source="qf4U3e7nOnJENOwfYTnV-31" target="qf4U3e7nOnJENOwfYTnV-49">
          <mxGeometry relative="1" as="geometry">
            <mxPoint x="270" y="720" as="targetPoint" />
          </mxGeometry>
        </mxCell>
        <mxCell id="qf4U3e7nOnJENOwfYTnV-31" value="state.equals(STATES.menu)" style="rhombus;whiteSpace=wrap;html=1;" vertex="1" parent="WIyWlLk6GJQsqaUBKTNV-1">
          <mxGeometry x="170" y="470" width="200" height="60" as="geometry" />
        </mxCell>
        <mxCell id="qf4U3e7nOnJENOwfYTnV-35" value="TRUE" style="text;html=1;strokeColor=none;fillColor=none;align=center;verticalAlign=middle;whiteSpace=wrap;rounded=0;" vertex="1" parent="WIyWlLk6GJQsqaUBKTNV-1">
          <mxGeometry x="150" y="470" width="30" height="20" as="geometry" />
        </mxCell>
        <mxCell id="qf4U3e7nOnJENOwfYTnV-39" style="edgeStyle=orthogonalEdgeStyle;rounded=0;orthogonalLoop=1;jettySize=auto;html=1;exitX=0.5;exitY=1;exitDx=0;exitDy=0;" edge="1" parent="WIyWlLk6GJQsqaUBKTNV-1" source="qf4U3e7nOnJENOwfYTnV-37" target="qf4U3e7nOnJENOwfYTnV-40">
          <mxGeometry relative="1" as="geometry">
            <mxPoint x="60" y="540" as="targetPoint" />
          </mxGeometry>
        </mxCell>
        <mxCell id="qf4U3e7nOnJENOwfYTnV-37" value="&lt;div&gt;&lt;span&gt;				&lt;/span&gt;cont.background.Update();&lt;/div&gt;&lt;div&gt;&lt;br&gt;&lt;/div&gt;" style="rounded=0;whiteSpace=wrap;html=1;" vertex="1" parent="WIyWlLk6GJQsqaUBKTNV-1">
          <mxGeometry x="-20" y="485" width="160" height="30" as="geometry" />
        </mxCell>
        <mxCell id="qf4U3e7nOnJENOwfYTnV-41" style="edgeStyle=orthogonalEdgeStyle;rounded=0;orthogonalLoop=1;jettySize=auto;html=1;exitX=0.5;exitY=1;exitDx=0;exitDy=0;" edge="1" parent="WIyWlLk6GJQsqaUBKTNV-1" source="qf4U3e7nOnJENOwfYTnV-40" target="qf4U3e7nOnJENOwfYTnV-42">
          <mxGeometry relative="1" as="geometry">
            <mxPoint x="60" y="580" as="targetPoint" />
          </mxGeometry>
        </mxCell>
        <mxCell id="qf4U3e7nOnJENOwfYTnV-40" value="cont.background.draw(g);" style="rounded=0;whiteSpace=wrap;html=1;" vertex="1" parent="WIyWlLk6GJQsqaUBKTNV-1">
          <mxGeometry x="-15" y="530" width="150" height="30" as="geometry" />
        </mxCell>
        <mxCell id="qf4U3e7nOnJENOwfYTnV-43" style="edgeStyle=orthogonalEdgeStyle;rounded=0;orthogonalLoop=1;jettySize=auto;html=1;exitX=0.5;exitY=1;exitDx=0;exitDy=0;" edge="1" parent="WIyWlLk6GJQsqaUBKTNV-1" source="qf4U3e7nOnJENOwfYTnV-42" target="qf4U3e7nOnJENOwfYTnV-44">
          <mxGeometry relative="1" as="geometry">
            <mxPoint x="60" y="610" as="targetPoint" />
          </mxGeometry>
        </mxCell>
        <mxCell id="qf4U3e7nOnJENOwfYTnV-42" value="cont.menu.Update();" style="rounded=0;whiteSpace=wrap;html=1;" vertex="1" parent="WIyWlLk6GJQsqaUBKTNV-1">
          <mxGeometry y="574.5" width="120" height="20" as="geometry" />
        </mxCell>
        <mxCell id="qf4U3e7nOnJENOwfYTnV-45" style="edgeStyle=orthogonalEdgeStyle;rounded=0;orthogonalLoop=1;jettySize=auto;html=1;exitX=0.5;exitY=1;exitDx=0;exitDy=0;" edge="1" parent="WIyWlLk6GJQsqaUBKTNV-1" source="qf4U3e7nOnJENOwfYTnV-44" target="qf4U3e7nOnJENOwfYTnV-46">
          <mxGeometry relative="1" as="geometry">
            <mxPoint x="60" y="650" as="targetPoint" />
          </mxGeometry>
        </mxCell>
        <mxCell id="qf4U3e7nOnJENOwfYTnV-44" value="cont.menu.draw(g);" style="rounded=0;whiteSpace=wrap;html=1;" vertex="1" parent="WIyWlLk6GJQsqaUBKTNV-1">
          <mxGeometry y="610" width="120" height="20" as="geometry" />
        </mxCell>
        <mxCell id="qf4U3e7nOnJENOwfYTnV-48" style="edgeStyle=orthogonalEdgeStyle;rounded=0;orthogonalLoop=1;jettySize=auto;html=1;exitX=0.5;exitY=1;exitDx=0;exitDy=0;" edge="1" parent="WIyWlLk6GJQsqaUBKTNV-1" source="qf4U3e7nOnJENOwfYTnV-46" target="qf4U3e7nOnJENOwfYTnV-49">
          <mxGeometry relative="1" as="geometry">
            <mxPoint x="60" y="690" as="targetPoint" />
          </mxGeometry>
        </mxCell>
        <mxCell id="qf4U3e7nOnJENOwfYTnV-46" value="RPGdraw();" style="rounded=0;whiteSpace=wrap;html=1;" vertex="1" parent="WIyWlLk6GJQsqaUBKTNV-1">
          <mxGeometry x="20" y="650" width="80" height="20" as="geometry" />
        </mxCell>
        <mxCell id="qf4U3e7nOnJENOwfYTnV-53" style="edgeStyle=orthogonalEdgeStyle;rounded=0;orthogonalLoop=1;jettySize=auto;html=1;exitX=0.5;exitY=1;exitDx=0;exitDy=0;" edge="1" parent="WIyWlLk6GJQsqaUBKTNV-1" source="qf4U3e7nOnJENOwfYTnV-49">
          <mxGeometry relative="1" as="geometry">
            <mxPoint x="60" y="790" as="targetPoint" />
          </mxGeometry>
        </mxCell>
        <mxCell id="qf4U3e7nOnJENOwfYTnV-62" style="edgeStyle=orthogonalEdgeStyle;rounded=0;orthogonalLoop=1;jettySize=auto;html=1;exitX=0;exitY=0.5;exitDx=0;exitDy=0;entryX=0;entryY=0.5;entryDx=0;entryDy=0;" edge="1" parent="WIyWlLk6GJQsqaUBKTNV-1" source="qf4U3e7nOnJENOwfYTnV-49" target="qf4U3e7nOnJENOwfYTnV-61">
          <mxGeometry relative="1" as="geometry">
            <mxPoint x="-120" y="950" as="targetPoint" />
            <Array as="points">
              <mxPoint x="-110" y="725" />
              <mxPoint x="-110" y="950" />
            </Array>
          </mxGeometry>
        </mxCell>
        <mxCell id="qf4U3e7nOnJENOwfYTnV-49" value="state.equals(STATES.play)" style="rhombus;whiteSpace=wrap;html=1;" vertex="1" parent="WIyWlLk6GJQsqaUBKTNV-1">
          <mxGeometry x="-40" y="690" width="200" height="70" as="geometry" />
        </mxCell>
        <mxCell id="qf4U3e7nOnJENOwfYTnV-51" value="FALSE" style="text;html=1;strokeColor=none;fillColor=none;align=center;verticalAlign=middle;whiteSpace=wrap;rounded=0;" vertex="1" parent="WIyWlLk6GJQsqaUBKTNV-1">
          <mxGeometry x="200" y="700" width="40" height="20" as="geometry" />
        </mxCell>
        <mxCell id="qf4U3e7nOnJENOwfYTnV-54" value="TRUE" style="text;html=1;strokeColor=none;fillColor=none;align=center;verticalAlign=middle;whiteSpace=wrap;rounded=0;" vertex="1" parent="WIyWlLk6GJQsqaUBKTNV-1">
          <mxGeometry x="70" y="760" width="30" height="20" as="geometry" />
        </mxCell>
        <mxCell id="qf4U3e7nOnJENOwfYTnV-56" style="edgeStyle=orthogonalEdgeStyle;rounded=0;orthogonalLoop=1;jettySize=auto;html=1;exitX=0.5;exitY=1;exitDx=0;exitDy=0;" edge="1" parent="WIyWlLk6GJQsqaUBKTNV-1" source="qf4U3e7nOnJENOwfYTnV-55">
          <mxGeometry relative="1" as="geometry">
            <mxPoint x="60" y="830" as="targetPoint" />
          </mxGeometry>
        </mxCell>
        <mxCell id="qf4U3e7nOnJENOwfYTnV-55" value="Update();" style="rounded=0;whiteSpace=wrap;html=1;" vertex="1" parent="WIyWlLk6GJQsqaUBKTNV-1">
          <mxGeometry x="25" y="790" width="70" height="20" as="geometry" />
        </mxCell>
        <mxCell id="qf4U3e7nOnJENOwfYTnV-58" style="edgeStyle=orthogonalEdgeStyle;rounded=0;orthogonalLoop=1;jettySize=auto;html=1;exitX=0.5;exitY=1;exitDx=0;exitDy=0;" edge="1" parent="WIyWlLk6GJQsqaUBKTNV-1" source="qf4U3e7nOnJENOwfYTnV-57" target="qf4U3e7nOnJENOwfYTnV-59">
          <mxGeometry relative="1" as="geometry">
            <mxPoint x="60" y="870" as="targetPoint" />
          </mxGeometry>
        </mxCell>
        <mxCell id="qf4U3e7nOnJENOwfYTnV-57" value="Render();" style="rounded=0;whiteSpace=wrap;html=1;" vertex="1" parent="WIyWlLk6GJQsqaUBKTNV-1">
          <mxGeometry x="30" y="830" width="60" height="20" as="geometry" />
        </mxCell>
        <mxCell id="qf4U3e7nOnJENOwfYTnV-60" style="edgeStyle=orthogonalEdgeStyle;rounded=0;orthogonalLoop=1;jettySize=auto;html=1;exitX=0.5;exitY=1;exitDx=0;exitDy=0;" edge="1" parent="WIyWlLk6GJQsqaUBKTNV-1" source="qf4U3e7nOnJENOwfYTnV-59" target="qf4U3e7nOnJENOwfYTnV-61">
          <mxGeometry relative="1" as="geometry">
            <mxPoint x="60" y="920" as="targetPoint" />
          </mxGeometry>
        </mxCell>
        <mxCell id="qf4U3e7nOnJENOwfYTnV-59" value="RPGdraw();" style="rounded=0;whiteSpace=wrap;html=1;" vertex="1" parent="WIyWlLk6GJQsqaUBKTNV-1">
          <mxGeometry x="25" y="870" width="70" height="20" as="geometry" />
        </mxCell>
        <mxCell id="qf4U3e7nOnJENOwfYTnV-64" style="edgeStyle=orthogonalEdgeStyle;rounded=0;orthogonalLoop=1;jettySize=auto;html=1;exitX=0.5;exitY=1;exitDx=0;exitDy=0;" edge="1" parent="WIyWlLk6GJQsqaUBKTNV-1" source="qf4U3e7nOnJENOwfYTnV-61">
          <mxGeometry relative="1" as="geometry">
            <mxPoint x="60" y="1020" as="targetPoint" />
          </mxGeometry>
        </mxCell>
        <mxCell id="qf4U3e7nOnJENOwfYTnV-78" style="edgeStyle=orthogonalEdgeStyle;rounded=0;orthogonalLoop=1;jettySize=auto;html=1;exitX=1;exitY=0.5;exitDx=0;exitDy=0;entryX=0.5;entryY=0;entryDx=0;entryDy=0;" edge="1" parent="WIyWlLk6GJQsqaUBKTNV-1" source="qf4U3e7nOnJENOwfYTnV-61" target="qf4U3e7nOnJENOwfYTnV-77">
          <mxGeometry relative="1" as="geometry">
            <mxPoint x="180" y="1250" as="targetPoint" />
            <Array as="points">
              <mxPoint x="240" y="950" />
              <mxPoint x="240" y="1220" />
              <mxPoint x="175" y="1220" />
            </Array>
          </mxGeometry>
        </mxCell>
        <mxCell id="qf4U3e7nOnJENOwfYTnV-61" value="state.equals(STATES.gameover)" style="rhombus;whiteSpace=wrap;html=1;" vertex="1" parent="WIyWlLk6GJQsqaUBKTNV-1">
          <mxGeometry x="-50" y="910" width="220" height="80" as="geometry" />
        </mxCell>
        <mxCell id="qf4U3e7nOnJENOwfYTnV-63" value="FALSE" style="text;html=1;strokeColor=none;fillColor=none;align=center;verticalAlign=middle;whiteSpace=wrap;rounded=0;" vertex="1" parent="WIyWlLk6GJQsqaUBKTNV-1">
          <mxGeometry x="-90" y="700" width="40" height="20" as="geometry" />
        </mxCell>
        <mxCell id="qf4U3e7nOnJENOwfYTnV-65" value="TRUE" style="text;html=1;strokeColor=none;fillColor=none;align=center;verticalAlign=middle;whiteSpace=wrap;rounded=0;" vertex="1" parent="WIyWlLk6GJQsqaUBKTNV-1">
          <mxGeometry x="70" y="990" width="30" height="20" as="geometry" />
        </mxCell>
        <mxCell id="qf4U3e7nOnJENOwfYTnV-67" style="edgeStyle=orthogonalEdgeStyle;rounded=0;orthogonalLoop=1;jettySize=auto;html=1;exitX=0.5;exitY=1;exitDx=0;exitDy=0;" edge="1" parent="WIyWlLk6GJQsqaUBKTNV-1" source="qf4U3e7nOnJENOwfYTnV-66" target="qf4U3e7nOnJENOwfYTnV-68">
          <mxGeometry relative="1" as="geometry">
            <mxPoint x="59.66666666666697" y="1060" as="targetPoint" />
          </mxGeometry>
        </mxCell>
        <mxCell id="qf4U3e7nOnJENOwfYTnV-66" value="cont.background.Update()" style="rounded=0;whiteSpace=wrap;html=1;" vertex="1" parent="WIyWlLk6GJQsqaUBKTNV-1">
          <mxGeometry x="-15" y="1020" width="150" height="20" as="geometry" />
        </mxCell>
        <mxCell id="qf4U3e7nOnJENOwfYTnV-69" style="edgeStyle=orthogonalEdgeStyle;rounded=0;orthogonalLoop=1;jettySize=auto;html=1;exitX=0.5;exitY=1;exitDx=0;exitDy=0;" edge="1" parent="WIyWlLk6GJQsqaUBKTNV-1" source="qf4U3e7nOnJENOwfYTnV-68" target="qf4U3e7nOnJENOwfYTnV-70">
          <mxGeometry relative="1" as="geometry">
            <mxPoint x="59.66666666666697" y="1110" as="targetPoint" />
          </mxGeometry>
        </mxCell>
        <mxCell id="qf4U3e7nOnJENOwfYTnV-68" value="cont.background.draw(g);" style="rounded=0;whiteSpace=wrap;html=1;" vertex="1" parent="WIyWlLk6GJQsqaUBKTNV-1">
          <mxGeometry x="-9.84" y="1060" width="139.67" height="30" as="geometry" />
        </mxCell>
        <mxCell id="qf4U3e7nOnJENOwfYTnV-71" style="edgeStyle=orthogonalEdgeStyle;rounded=0;orthogonalLoop=1;jettySize=auto;html=1;exitX=0.5;exitY=1;exitDx=0;exitDy=0;" edge="1" parent="WIyWlLk6GJQsqaUBKTNV-1" source="qf4U3e7nOnJENOwfYTnV-70" target="qf4U3e7nOnJENOwfYTnV-72">
          <mxGeometry relative="1" as="geometry">
            <mxPoint x="59.66666666666697" y="1150" as="targetPoint" />
          </mxGeometry>
        </mxCell>
        <mxCell id="qf4U3e7nOnJENOwfYTnV-70" value="cont.gameover.Update();" style="rounded=0;whiteSpace=wrap;html=1;" vertex="1" parent="WIyWlLk6GJQsqaUBKTNV-1">
          <mxGeometry x="-9.84" y="1110" width="139.67" height="20" as="geometry" />
        </mxCell>
        <mxCell id="qf4U3e7nOnJENOwfYTnV-74" style="edgeStyle=orthogonalEdgeStyle;rounded=0;orthogonalLoop=1;jettySize=auto;html=1;exitX=0.5;exitY=1;exitDx=0;exitDy=0;" edge="1" parent="WIyWlLk6GJQsqaUBKTNV-1" source="qf4U3e7nOnJENOwfYTnV-72" target="qf4U3e7nOnJENOwfYTnV-75">
          <mxGeometry relative="1" as="geometry">
            <mxPoint x="60.5" y="1200" as="targetPoint" />
          </mxGeometry>
        </mxCell>
        <mxCell id="qf4U3e7nOnJENOwfYTnV-72" value="cont.gameover.draw(g);" style="rounded=0;whiteSpace=wrap;html=1;" vertex="1" parent="WIyWlLk6GJQsqaUBKTNV-1">
          <mxGeometry x="-9.84" y="1150" width="140" height="30" as="geometry" />
        </mxCell>
        <mxCell id="qf4U3e7nOnJENOwfYTnV-73" style="edgeStyle=orthogonalEdgeStyle;rounded=0;orthogonalLoop=1;jettySize=auto;html=1;exitX=0.5;exitY=1;exitDx=0;exitDy=0;" edge="1" parent="WIyWlLk6GJQsqaUBKTNV-1" source="qf4U3e7nOnJENOwfYTnV-72" target="qf4U3e7nOnJENOwfYTnV-72">
          <mxGeometry relative="1" as="geometry" />
        </mxCell>
        <mxCell id="qf4U3e7nOnJENOwfYTnV-76" style="edgeStyle=orthogonalEdgeStyle;rounded=0;orthogonalLoop=1;jettySize=auto;html=1;exitX=0.5;exitY=1;exitDx=0;exitDy=0;" edge="1" parent="WIyWlLk6GJQsqaUBKTNV-1" source="qf4U3e7nOnJENOwfYTnV-75" target="qf4U3e7nOnJENOwfYTnV-77">
          <mxGeometry relative="1" as="geometry">
            <mxPoint x="130" y="1260" as="targetPoint" />
          </mxGeometry>
        </mxCell>
        <mxCell id="qf4U3e7nOnJENOwfYTnV-75" value="RPGdraw();" style="rounded=0;whiteSpace=wrap;html=1;" vertex="1" parent="WIyWlLk6GJQsqaUBKTNV-1">
          <mxGeometry x="20.08" y="1200" width="80.16" height="20" as="geometry" />
        </mxCell>
        <mxCell id="qf4U3e7nOnJENOwfYTnV-80" style="edgeStyle=orthogonalEdgeStyle;rounded=0;orthogonalLoop=1;jettySize=auto;html=1;exitX=0.5;exitY=1;exitDx=0;exitDy=0;" edge="1" parent="WIyWlLk6GJQsqaUBKTNV-1" source="qf4U3e7nOnJENOwfYTnV-77">
          <mxGeometry relative="1" as="geometry">
            <mxPoint x="174.66666666666697" y="1340" as="targetPoint" />
          </mxGeometry>
        </mxCell>
        <mxCell id="qf4U3e7nOnJENOwfYTnV-77" value="FPStimer = (System.nanoTime() - FPStimer) / 1000000;" style="rounded=0;whiteSpace=wrap;html=1;" vertex="1" parent="WIyWlLk6GJQsqaUBKTNV-1">
          <mxGeometry x="70" y="1270" width="210" height="40" as="geometry" />
        </mxCell>
        <mxCell id="qf4U3e7nOnJENOwfYTnV-79" value="FALSE" style="text;html=1;strokeColor=none;fillColor=none;align=center;verticalAlign=middle;whiteSpace=wrap;rounded=0;" vertex="1" parent="WIyWlLk6GJQsqaUBKTNV-1">
          <mxGeometry x="180" y="920" width="40" height="20" as="geometry" />
        </mxCell>
        <mxCell id="qf4U3e7nOnJENOwfYTnV-82" style="edgeStyle=orthogonalEdgeStyle;rounded=0;orthogonalLoop=1;jettySize=auto;html=1;exitX=0;exitY=0.5;exitDx=0;exitDy=0;" edge="1" parent="WIyWlLk6GJQsqaUBKTNV-1" source="qf4U3e7nOnJENOwfYTnV-81">
          <mxGeometry relative="1" as="geometry">
            <mxPoint x="80" y="1440" as="targetPoint" />
          </mxGeometry>
        </mxCell>
        <mxCell id="qf4U3e7nOnJENOwfYTnV-83" style="edgeStyle=orthogonalEdgeStyle;rounded=0;orthogonalLoop=1;jettySize=auto;html=1;exitX=1;exitY=0.5;exitDx=0;exitDy=0;" edge="1" parent="WIyWlLk6GJQsqaUBKTNV-1" source="qf4U3e7nOnJENOwfYTnV-81">
          <mxGeometry relative="1" as="geometry">
            <mxPoint x="260" y="1440" as="targetPoint" />
            <Array as="points">
              <mxPoint x="260" y="1380" />
              <mxPoint x="260" y="1440" />
            </Array>
          </mxGeometry>
        </mxCell>
        <mxCell id="qf4U3e7nOnJENOwfYTnV-81" value="msecFPS &amp;gt; FPStimer" style="rhombus;whiteSpace=wrap;html=1;" vertex="1" parent="WIyWlLk6GJQsqaUBKTNV-1">
          <mxGeometry x="122.5" y="1340" width="105" height="80" as="geometry" />
        </mxCell>
        <mxCell id="qf4U3e7nOnJENOwfYTnV-84" value="FALSE" style="text;html=1;strokeColor=none;fillColor=none;align=center;verticalAlign=middle;whiteSpace=wrap;rounded=0;" vertex="1" parent="WIyWlLk6GJQsqaUBKTNV-1">
          <mxGeometry x="270" y="1390" width="40" height="20" as="geometry" />
        </mxCell>
        <mxCell id="qf4U3e7nOnJENOwfYTnV-85" value="TRUE" style="text;html=1;strokeColor=none;fillColor=none;align=center;verticalAlign=middle;whiteSpace=wrap;rounded=0;" vertex="1" parent="WIyWlLk6GJQsqaUBKTNV-1">
          <mxGeometry x="45.16" y="1390" width="30" height="20" as="geometry" />
        </mxCell>
        <mxCell id="qf4U3e7nOnJENOwfYTnV-89" style="edgeStyle=orthogonalEdgeStyle;rounded=0;orthogonalLoop=1;jettySize=auto;html=1;exitX=0.5;exitY=1;exitDx=0;exitDy=0;" edge="1" parent="WIyWlLk6GJQsqaUBKTNV-1" source="qf4U3e7nOnJENOwfYTnV-86" target="qf4U3e7nOnJENOwfYTnV-88">
          <mxGeometry relative="1" as="geometry">
            <Array as="points">
              <mxPoint x="80" y="1500" />
              <mxPoint x="178" y="1500" />
            </Array>
          </mxGeometry>
        </mxCell>
        <mxCell id="qf4U3e7nOnJENOwfYTnV-86" value="sleeptime = (int) msecFPS - (int) FPStime" style="rounded=0;whiteSpace=wrap;html=1;" vertex="1" parent="WIyWlLk6GJQsqaUBKTNV-1">
          <mxGeometry x="20" y="1440" width="120" height="40" as="geometry" />
        </mxCell>
        <mxCell id="qf4U3e7nOnJENOwfYTnV-90" style="edgeStyle=orthogonalEdgeStyle;rounded=0;orthogonalLoop=1;jettySize=auto;html=1;exitX=0.5;exitY=1;exitDx=0;exitDy=0;entryX=0.5;entryY=0;entryDx=0;entryDy=0;" edge="1" parent="WIyWlLk6GJQsqaUBKTNV-1" source="qf4U3e7nOnJENOwfYTnV-87" target="qf4U3e7nOnJENOwfYTnV-88">
          <mxGeometry relative="1" as="geometry">
            <Array as="points">
              <mxPoint x="262" y="1500" />
              <mxPoint x="178" y="1500" />
            </Array>
          </mxGeometry>
        </mxCell>
        <mxCell id="qf4U3e7nOnJENOwfYTnV-87" value="sleeptime = 1;" style="rounded=0;whiteSpace=wrap;html=1;" vertex="1" parent="WIyWlLk6GJQsqaUBKTNV-1">
          <mxGeometry x="214.5" y="1440" width="95.5" height="30" as="geometry" />
        </mxCell>
        <mxCell id="qf4U3e7nOnJENOwfYTnV-97" style="edgeStyle=orthogonalEdgeStyle;rounded=0;orthogonalLoop=1;jettySize=auto;html=1;exitX=0.5;exitY=1;exitDx=0;exitDy=0;entryX=0;entryY=0.5;entryDx=0;entryDy=0;" edge="1" parent="WIyWlLk6GJQsqaUBKTNV-1" source="qf4U3e7nOnJENOwfYTnV-88" target="qf4U3e7nOnJENOwfYTnV-96">
          <mxGeometry relative="1" as="geometry" />
        </mxCell>
        <mxCell id="qf4U3e7nOnJENOwfYTnV-88" value="potok.sleep(sleeptime)" style="shape=process;whiteSpace=wrap;html=1;backgroundOutline=1;size=0.08333333333333333;" vertex="1" parent="WIyWlLk6GJQsqaUBKTNV-1">
          <mxGeometry x="95" y="1520" width="165" height="60" as="geometry" />
        </mxCell>
        <mxCell id="qf4U3e7nOnJENOwfYTnV-91" value="" style="endArrow=none;dashed=1;html=1;dashPattern=1 3;strokeWidth=2;exitX=0;exitY=0.5;exitDx=0;exitDy=0;" edge="1" parent="WIyWlLk6GJQsqaUBKTNV-1" source="qf4U3e7nOnJENOwfYTnV-88">
          <mxGeometry width="50" height="50" relative="1" as="geometry">
            <mxPoint x="120" y="1570" as="sourcePoint" />
            <mxPoint x="40" y="1640" as="targetPoint" />
            <Array as="points">
              <mxPoint x="40" y="1550" />
            </Array>
          </mxGeometry>
        </mxCell>
        <mxCell id="qf4U3e7nOnJENOwfYTnV-92" value="" style="endArrow=classic;html=1;" edge="1" parent="WIyWlLk6GJQsqaUBKTNV-1">
          <mxGeometry width="50" height="50" relative="1" as="geometry">
            <mxPoint x="40" y="1640" as="sourcePoint" />
            <mxPoint x="40" y="1640" as="targetPoint" />
          </mxGeometry>
        </mxCell>
        <mxCell id="qf4U3e7nOnJENOwfYTnV-98" style="edgeStyle=orthogonalEdgeStyle;rounded=0;orthogonalLoop=1;jettySize=auto;html=1;exitX=1;exitY=0.5;exitDx=0;exitDy=0;" edge="1" parent="WIyWlLk6GJQsqaUBKTNV-1" source="qf4U3e7nOnJENOwfYTnV-94">
          <mxGeometry relative="1" as="geometry">
            <mxPoint x="270" y="1655.3333333333335" as="targetPoint" />
          </mxGeometry>
        </mxCell>
        <mxCell id="qf4U3e7nOnJENOwfYTnV-94" value="potok.sleep(sleeptime)" style="rounded=0;whiteSpace=wrap;html=1;" vertex="1" parent="WIyWlLk6GJQsqaUBKTNV-1">
          <mxGeometry x="-20" y="1640" width="135" height="30" as="geometry" />
        </mxCell>
        <mxCell id="qf4U3e7nOnJENOwfYTnV-95" value="InterruptedException e" style="text;whiteSpace=wrap;html=1;" vertex="1" parent="WIyWlLk6GJQsqaUBKTNV-1">
          <mxGeometry x="-90" y="1580" width="130" height="20" as="geometry" />
        </mxCell>
        <mxCell id="qf4U3e7nOnJENOwfYTnV-100" style="edgeStyle=orthogonalEdgeStyle;rounded=0;orthogonalLoop=1;jettySize=auto;html=1;exitX=1;exitY=0.5;exitDx=0;exitDy=0;entryX=0;entryY=0.5;entryDx=0;entryDy=0;" edge="1" parent="WIyWlLk6GJQsqaUBKTNV-1" source="qf4U3e7nOnJENOwfYTnV-96" target="qf4U3e7nOnJENOwfYTnV-99">
          <mxGeometry relative="1" as="geometry" />
        </mxCell>
        <mxCell id="qf4U3e7nOnJENOwfYTnV-96" value="FPStimer = 0" style="rounded=0;whiteSpace=wrap;html=1;" vertex="1" parent="WIyWlLk6GJQsqaUBKTNV-1">
          <mxGeometry x="270" y="1635" width="80" height="40" as="geometry" />
        </mxCell>
        <mxCell id="qf4U3e7nOnJENOwfYTnV-99" value="sleeptime = 1" style="rounded=0;whiteSpace=wrap;html=1;" vertex="1" parent="WIyWlLk6GJQsqaUBKTNV-1">
          <mxGeometry x="394" y="1645" width="80" height="20" as="geometry" />
        </mxCell>
        <mxCell id="qf4U3e7nOnJENOwfYTnV-103" value="" style="endArrow=none;html=1;exitX=0.5;exitY=0;exitDx=0;exitDy=0;" edge="1" parent="WIyWlLk6GJQsqaUBKTNV-1" source="qf4U3e7nOnJENOwfYTnV-99">
          <mxGeometry width="50" height="50" relative="1" as="geometry">
            <mxPoint x="590" y="1150" as="sourcePoint" />
            <mxPoint x="440" y="640" as="targetPoint" />
            <Array as="points" />
          </mxGeometry>
        </mxCell>
        <mxCell id="qf4U3e7nOnJENOwfYTnV-104" value="" style="endArrow=none;html=1;" edge="1" parent="WIyWlLk6GJQsqaUBKTNV-1">
          <mxGeometry width="50" height="50" relative="1" as="geometry">
            <mxPoint x="440" y="640" as="sourcePoint" />
            <mxPoint x="640" y="640" as="targetPoint" />
          </mxGeometry>
        </mxCell>
        <mxCell id="qf4U3e7nOnJENOwfYTnV-105" value="" style="endArrow=none;html=1;" edge="1" parent="WIyWlLk6GJQsqaUBKTNV-1">
          <mxGeometry width="50" height="50" relative="1" as="geometry">
            <mxPoint x="640" y="640" as="sourcePoint" />
            <mxPoint x="640" y="380" as="targetPoint" />
          </mxGeometry>
        </mxCell>
        <mxCell id="qf4U3e7nOnJENOwfYTnV-106" value="" style="endArrow=none;html=1;" edge="1" parent="WIyWlLk6GJQsqaUBKTNV-1">
          <mxGeometry width="50" height="50" relative="1" as="geometry">
            <mxPoint x="420" y="380" as="sourcePoint" />
            <mxPoint x="640" y="380" as="targetPoint" />
          </mxGeometry>
        </mxCell>
      </root>
    </mxGraphModel>
  </diagram>
  <diagram id="QrBRwXosfd16zqTjmQUp" name="Page-2">
    <mxGraphModel dx="1422" dy="789" grid="1" gridSize="10" guides="1" tooltips="1" connect="1" arrows="1" fold="1" page="1" pageScale="1" pageWidth="827" pageHeight="1169" math="0" shadow="0">
      <root>
        <mxCell id="BS9PsPh_TDBkRKVdNL-d-0" />
        <mxCell id="BS9PsPh_TDBkRKVdNL-d-1" parent="BS9PsPh_TDBkRKVdNL-d-0" />
        <mxCell id="BS9PsPh_TDBkRKVdNL-d-3" style="edgeStyle=orthogonalEdgeStyle;rounded=0;orthogonalLoop=1;jettySize=auto;html=1;exitX=0.5;exitY=1;exitDx=0;exitDy=0;" edge="1" parent="BS9PsPh_TDBkRKVdNL-d-1" source="BS9PsPh_TDBkRKVdNL-d-2" target="BS9PsPh_TDBkRKVdNL-d-4">
          <mxGeometry relative="1" as="geometry">
            <mxPoint x="414" y="90" as="targetPoint" />
          </mxGeometry>
        </mxCell>
        <mxCell id="BS9PsPh_TDBkRKVdNL-d-2" value="public void Update()" style="ellipse;whiteSpace=wrap;html=1;" vertex="1" parent="BS9PsPh_TDBkRKVdNL-d-1">
          <mxGeometry x="352" y="20" width="124" height="40" as="geometry" />
        </mxCell>
        <mxCell id="BS9PsPh_TDBkRKVdNL-d-5" style="edgeStyle=orthogonalEdgeStyle;rounded=0;orthogonalLoop=1;jettySize=auto;html=1;exitX=0.5;exitY=1;exitDx=0;exitDy=0;" edge="1" parent="BS9PsPh_TDBkRKVdNL-d-1" source="BS9PsPh_TDBkRKVdNL-d-4" target="BS9PsPh_TDBkRKVdNL-d-6">
          <mxGeometry relative="1" as="geometry">
            <mxPoint x="414" y="140" as="targetPoint" />
          </mxGeometry>
        </mxCell>
        <mxCell id="BS9PsPh_TDBkRKVdNL-d-4" value="cont.background.Update()" style="rounded=0;whiteSpace=wrap;html=1;" vertex="1" parent="BS9PsPh_TDBkRKVdNL-d-1">
          <mxGeometry x="337" y="80" width="154" height="30" as="geometry" />
        </mxCell>
        <mxCell id="BS9PsPh_TDBkRKVdNL-d-7" style="edgeStyle=orthogonalEdgeStyle;rounded=0;orthogonalLoop=1;jettySize=auto;html=1;exitX=0.5;exitY=1;exitDx=0;exitDy=0;" edge="1" parent="BS9PsPh_TDBkRKVdNL-d-1" source="BS9PsPh_TDBkRKVdNL-d-6" target="BS9PsPh_TDBkRKVdNL-d-8">
          <mxGeometry relative="1" as="geometry">
            <mxPoint x="414" y="190" as="targetPoint" />
          </mxGeometry>
        </mxCell>
        <mxCell id="BS9PsPh_TDBkRKVdNL-d-6" value="cont.player.Update()" style="rounded=0;whiteSpace=wrap;html=1;" vertex="1" parent="BS9PsPh_TDBkRKVdNL-d-1">
          <mxGeometry x="354" y="140" width="120" height="30" as="geometry" />
        </mxCell>
        <mxCell id="BS9PsPh_TDBkRKVdNL-d-9" style="edgeStyle=orthogonalEdgeStyle;rounded=0;orthogonalLoop=1;jettySize=auto;html=1;exitX=0.5;exitY=1;exitDx=0;exitDy=0;" edge="1" parent="BS9PsPh_TDBkRKVdNL-d-1" source="BS9PsPh_TDBkRKVdNL-d-8">
          <mxGeometry relative="1" as="geometry">
            <mxPoint x="414" y="240" as="targetPoint" />
          </mxGeometry>
        </mxCell>
        <mxCell id="BS9PsPh_TDBkRKVdNL-d-8" value="cont.spawn.Update()" style="rounded=0;whiteSpace=wrap;html=1;" vertex="1" parent="BS9PsPh_TDBkRKVdNL-d-1">
          <mxGeometry x="354" y="190" width="120" height="30" as="geometry" />
        </mxCell>
        <mxCell id="BS9PsPh_TDBkRKVdNL-d-11" style="edgeStyle=orthogonalEdgeStyle;rounded=0;orthogonalLoop=1;jettySize=auto;html=1;exitX=0.5;exitY=1;exitDx=0;exitDy=0;" edge="1" parent="BS9PsPh_TDBkRKVdNL-d-1" source="BS9PsPh_TDBkRKVdNL-d-10" target="BS9PsPh_TDBkRKVdNL-d-12">
          <mxGeometry relative="1" as="geometry">
            <mxPoint x="416" y="300" as="targetPoint" />
          </mxGeometry>
        </mxCell>
        <mxCell id="BS9PsPh_TDBkRKVdNL-d-10" value="cont.intface.Update()" style="rounded=0;whiteSpace=wrap;html=1;" vertex="1" parent="BS9PsPh_TDBkRKVdNL-d-1">
          <mxGeometry x="356" y="240" width="120" height="30" as="geometry" />
        </mxCell>
        <mxCell id="BS9PsPh_TDBkRKVdNL-d-13" style="edgeStyle=orthogonalEdgeStyle;rounded=0;orthogonalLoop=1;jettySize=auto;html=1;exitX=0.5;exitY=1;exitDx=0;exitDy=0;" edge="1" parent="BS9PsPh_TDBkRKVdNL-d-1" source="BS9PsPh_TDBkRKVdNL-d-12" target="BS9PsPh_TDBkRKVdNL-d-14">
          <mxGeometry relative="1" as="geometry">
            <mxPoint x="416" y="410" as="targetPoint" />
          </mxGeometry>
        </mxCell>
        <mxCell id="BS9PsPh_TDBkRKVdNL-d-12" value="state == STATES.gameover" style="rhombus;whiteSpace=wrap;html=1;" vertex="1" parent="BS9PsPh_TDBkRKVdNL-d-1">
          <mxGeometry x="323" y="290" width="186" height="80" as="geometry" />
        </mxCell>
        <mxCell id="BS9PsPh_TDBkRKVdNL-d-14" value="cont.gameover.Update()" style="rounded=0;whiteSpace=wrap;html=1;" vertex="1" parent="BS9PsPh_TDBkRKVdNL-d-1">
          <mxGeometry x="338" y="400" width="156" height="40" as="geometry" />
        </mxCell>
        <mxCell id="BS9PsPh_TDBkRKVdNL-d-15" value="TRUE" style="text;html=1;strokeColor=none;fillColor=none;align=center;verticalAlign=middle;whiteSpace=wrap;rounded=0;" vertex="1" parent="BS9PsPh_TDBkRKVdNL-d-1">
          <mxGeometry x="420" y="370" width="40" height="20" as="geometry" />
        </mxCell>
      </root>
    </mxGraphModel>
  </diagram>
  <diagram id="WEk4gKpXNPVuJpd_KQLU" name="Page-3">
    <mxGraphModel dx="1185" dy="658" grid="1" gridSize="10" guides="1" tooltips="1" connect="1" arrows="1" fold="1" page="1" pageScale="1" pageWidth="827" pageHeight="1169" math="0" shadow="0">
      <root>
        <mxCell id="kW1BVaCog7KETrWbXtc6-0" />
        <mxCell id="kW1BVaCog7KETrWbXtc6-1" parent="kW1BVaCog7KETrWbXtc6-0" />
        <mxCell id="kW1BVaCog7KETrWbXtc6-3" style="edgeStyle=orthogonalEdgeStyle;rounded=0;orthogonalLoop=1;jettySize=auto;html=1;exitX=0.5;exitY=1;exitDx=0;exitDy=0;" edge="1" parent="kW1BVaCog7KETrWbXtc6-1" source="kW1BVaCog7KETrWbXtc6-2" target="kW1BVaCog7KETrWbXtc6-4">
          <mxGeometry relative="1" as="geometry">
            <mxPoint x="400" y="110" as="targetPoint" />
          </mxGeometry>
        </mxCell>
        <mxCell id="kW1BVaCog7KETrWbXtc6-2" value="For" style="ellipse;whiteSpace=wrap;html=1;" vertex="1" parent="kW1BVaCog7KETrWbXtc6-1">
          <mxGeometry x="350" y="30" width="100" height="50" as="geometry" />
        </mxCell>
        <mxCell id="kW1BVaCog7KETrWbXtc6-5" style="edgeStyle=orthogonalEdgeStyle;rounded=0;orthogonalLoop=1;jettySize=auto;html=1;exitX=0.5;exitY=1;exitDx=0;exitDy=0;" edge="1" parent="kW1BVaCog7KETrWbXtc6-1" source="kW1BVaCog7KETrWbXtc6-4" target="kW1BVaCog7KETrWbXtc6-6">
          <mxGeometry relative="1" as="geometry">
            <mxPoint x="400" y="150" as="targetPoint" />
          </mxGeometry>
        </mxCell>
        <mxCell id="kW1BVaCog7KETrWbXtc6-4" value="int i = 0" style="rounded=0;whiteSpace=wrap;html=1;" vertex="1" parent="kW1BVaCog7KETrWbXtc6-1">
          <mxGeometry x="360" y="110" width="80" height="20" as="geometry" />
        </mxCell>
        <mxCell id="kW1BVaCog7KETrWbXtc6-7" style="edgeStyle=orthogonalEdgeStyle;rounded=0;orthogonalLoop=1;jettySize=auto;html=1;exitX=0.5;exitY=1;exitDx=0;exitDy=0;" edge="1" parent="kW1BVaCog7KETrWbXtc6-1" source="kW1BVaCog7KETrWbXtc6-6">
          <mxGeometry relative="1" as="geometry">
            <mxPoint x="400" y="260" as="targetPoint" />
          </mxGeometry>
        </mxCell>
        <mxCell id="kW1BVaCog7KETrWbXtc6-6" value="i &lt; cont.magic.size()" style="rhombus;whiteSpace=wrap;html=1;" vertex="1" parent="kW1BVaCog7KETrWbXtc6-1">
          <mxGeometry x="335" y="150" width="130" height="80" as="geometry" />
        </mxCell>
        <mxCell id="kW1BVaCog7KETrWbXtc6-10" value="TRUE" style="text;html=1;strokeColor=none;fillColor=none;align=center;verticalAlign=middle;whiteSpace=wrap;rounded=0;" vertex="1" parent="kW1BVaCog7KETrWbXtc6-1">
          <mxGeometry x="400" y="230" width="40" height="20" as="geometry" />
        </mxCell>
        <mxCell id="kW1BVaCog7KETrWbXtc6-12" style="edgeStyle=orthogonalEdgeStyle;rounded=0;orthogonalLoop=1;jettySize=auto;html=1;exitX=0.5;exitY=1;exitDx=0;exitDy=0;" edge="1" parent="kW1BVaCog7KETrWbXtc6-1" source="kW1BVaCog7KETrWbXtc6-11" target="kW1BVaCog7KETrWbXtc6-13">
          <mxGeometry relative="1" as="geometry">
            <mxPoint x="400" y="360" as="targetPoint" />
          </mxGeometry>
        </mxCell>
        <mxCell id="kW1BVaCog7KETrWbXtc6-11" value="cont.magic.get(i).Update()" style="rounded=0;whiteSpace=wrap;html=1;" vertex="1" parent="kW1BVaCog7KETrWbXtc6-1">
          <mxGeometry x="310" y="260" width="180" height="60" as="geometry" />
        </mxCell>
        <mxCell id="kW1BVaCog7KETrWbXtc6-14" style="edgeStyle=orthogonalEdgeStyle;rounded=0;orthogonalLoop=1;jettySize=auto;html=1;exitX=0.5;exitY=1;exitDx=0;exitDy=0;" edge="1" parent="kW1BVaCog7KETrWbXtc6-1" source="kW1BVaCog7KETrWbXtc6-13">
          <mxGeometry relative="1" as="geometry">
            <mxPoint x="400" y="410" as="targetPoint" />
          </mxGeometry>
        </mxCell>
        <mxCell id="kW1BVaCog7KETrWbXtc6-16" style="edgeStyle=orthogonalEdgeStyle;rounded=0;orthogonalLoop=1;jettySize=auto;html=1;exitX=0.5;exitY=1;exitDx=0;exitDy=0;" edge="1" parent="kW1BVaCog7KETrWbXtc6-1" source="kW1BVaCog7KETrWbXtc6-13" target="kW1BVaCog7KETrWbXtc6-17">
          <mxGeometry relative="1" as="geometry">
            <mxPoint x="400" y="440" as="targetPoint" />
          </mxGeometry>
        </mxCell>
        <mxCell id="kW1BVaCog7KETrWbXtc6-13" value="boolean ClearList = cont.magic.get(i).ClearList()" style="rounded=0;whiteSpace=wrap;html=1;" vertex="1" parent="kW1BVaCog7KETrWbXtc6-1">
          <mxGeometry x="320" y="350" width="160" height="60" as="geometry" />
        </mxCell>
        <mxCell id="kW1BVaCog7KETrWbXtc6-18" style="edgeStyle=orthogonalEdgeStyle;rounded=0;orthogonalLoop=1;jettySize=auto;html=1;exitX=0;exitY=0.5;exitDx=0;exitDy=0;" edge="1" parent="kW1BVaCog7KETrWbXtc6-1" source="kW1BVaCog7KETrWbXtc6-17" target="kW1BVaCog7KETrWbXtc6-19">
          <mxGeometry relative="1" as="geometry">
            <mxPoint x="310" y="520" as="targetPoint" />
          </mxGeometry>
        </mxCell>
        <mxCell id="kW1BVaCog7KETrWbXtc6-26" style="edgeStyle=orthogonalEdgeStyle;rounded=0;orthogonalLoop=1;jettySize=auto;html=1;exitX=1;exitY=0.5;exitDx=0;exitDy=0;" edge="1" parent="kW1BVaCog7KETrWbXtc6-1" source="kW1BVaCog7KETrWbXtc6-17">
          <mxGeometry relative="1" as="geometry">
            <mxPoint x="510" y="460" as="targetPoint" />
          </mxGeometry>
        </mxCell>
        <mxCell id="kW1BVaCog7KETrWbXtc6-17" value="ClearList" style="rhombus;whiteSpace=wrap;html=1;" vertex="1" parent="kW1BVaCog7KETrWbXtc6-1">
          <mxGeometry x="360" y="430" width="80" height="60" as="geometry" />
        </mxCell>
        <mxCell id="kW1BVaCog7KETrWbXtc6-22" style="edgeStyle=orthogonalEdgeStyle;rounded=0;orthogonalLoop=1;jettySize=auto;html=1;exitX=0.5;exitY=1;exitDx=0;exitDy=0;" edge="1" parent="kW1BVaCog7KETrWbXtc6-1" source="kW1BVaCog7KETrWbXtc6-19">
          <mxGeometry relative="1" as="geometry">
            <mxPoint x="310" y="540" as="targetPoint" />
          </mxGeometry>
        </mxCell>
        <mxCell id="kW1BVaCog7KETrWbXtc6-25" style="edgeStyle=orthogonalEdgeStyle;rounded=0;orthogonalLoop=1;jettySize=auto;html=1;exitX=0.5;exitY=1;exitDx=0;exitDy=0;entryX=0.5;entryY=0;entryDx=0;entryDy=0;" edge="1" parent="kW1BVaCog7KETrWbXtc6-1" source="kW1BVaCog7KETrWbXtc6-19" target="kW1BVaCog7KETrWbXtc6-24">
          <mxGeometry relative="1" as="geometry" />
        </mxCell>
        <mxCell id="kW1BVaCog7KETrWbXtc6-19" value="cont.magic.remove(i)" style="rounded=0;whiteSpace=wrap;html=1;" vertex="1" parent="kW1BVaCog7KETrWbXtc6-1">
          <mxGeometry x="250" y="510" width="120" height="30" as="geometry" />
        </mxCell>
        <mxCell id="kW1BVaCog7KETrWbXtc6-20" value="TRUE" style="text;html=1;strokeColor=none;fillColor=none;align=center;verticalAlign=middle;whiteSpace=wrap;rounded=0;" vertex="1" parent="kW1BVaCog7KETrWbXtc6-1">
          <mxGeometry x="320" y="440" width="40" height="20" as="geometry" />
        </mxCell>
        <mxCell id="kW1BVaCog7KETrWbXtc6-24" value="i--" style="rounded=0;whiteSpace=wrap;html=1;" vertex="1" parent="kW1BVaCog7KETrWbXtc6-1">
          <mxGeometry x="295" y="570" width="30" height="30" as="geometry" />
        </mxCell>
        <mxCell id="kW1BVaCog7KETrWbXtc6-29" value="FALSE" style="text;html=1;strokeColor=none;fillColor=none;align=center;verticalAlign=middle;whiteSpace=wrap;rounded=0;" vertex="1" parent="kW1BVaCog7KETrWbXtc6-1">
          <mxGeometry x="450" y="440" width="40" height="20" as="geometry" />
        </mxCell>
        <mxCell id="kW1BVaCog7KETrWbXtc6-30" value="i++" style="rounded=0;whiteSpace=wrap;html=1;" vertex="1" parent="kW1BVaCog7KETrWbXtc6-1">
          <mxGeometry x="510" y="440" width="40" height="40" as="geometry" />
        </mxCell>
        <mxCell id="kW1BVaCog7KETrWbXtc6-32" value="" style="endArrow=none;html=1;" edge="1" parent="kW1BVaCog7KETrWbXtc6-1">
          <mxGeometry width="50" height="50" relative="1" as="geometry">
            <mxPoint x="530" y="440" as="sourcePoint" />
            <mxPoint x="530" y="90" as="targetPoint" />
          </mxGeometry>
        </mxCell>
        <mxCell id="kW1BVaCog7KETrWbXtc6-33" value="" style="endArrow=none;html=1;" edge="1" parent="kW1BVaCog7KETrWbXtc6-1">
          <mxGeometry width="50" height="50" relative="1" as="geometry">
            <mxPoint x="400" y="90" as="sourcePoint" />
            <mxPoint x="530" y="90" as="targetPoint" />
          </mxGeometry>
        </mxCell>
      </root>
    </mxGraphModel>
  </diagram>
</mxfile>
